<?xml version="1.0" standalone="no"?><!DOCTYPE svg PUBLIC "-//W3C//DTD SVG 1.1//EN" "http://www.w3.org/Graphics/SVG/1.1/DTD/svg11.dtd"><svg t="1513128001194" class="icon" style="" viewBox="0 0 1024 1024" version="1.1" xmlns="http://www.w3.org/2000/svg" p-id="4389" xmlns:xlink="http://www.w3.org/1999/xlink" width="64" height="64"><defs><style type="text/css"></style></defs><path d="M854.4 758.4c-6.4 6.4-12.8 9.6-22.4 9.6h-576c-19.2 0-32 12.8-32 32v64c0 9.6 3.2 16 9.6 22.4 6.4 6.4 12.8 9.6 22.4 9.6h576c19.2 0 32 12.8 32 32s-12.8 32-32 32h-576c-54.4 0-96-41.6-96-96v-704c0-54.4 41.6-96 96-96h512c54.4 0 96 41.6 96 96v576c0 9.6-3.2 16-9.6 22.4z m-54.4-54.4v-544c0-19.2-12.8-32-32-32h-512c-19.2 0-32 12.8-32 32v550.4c9.6-3.2 19.2-6.4 32-6.4h544z m-384-448h192c35.2 0 64 28.8 64 64v64c0 35.2-28.8 64-64 64h-192c-35.2 0-64-28.8-64-64v-64c0-35.2 28.8-64 64-64z m0 64v64h192v-64h-192z" p-id="4390" fill="#485a6a"></path></svg>