<?xml version="1.0" standalone="no"?><!DOCTYPE svg PUBLIC "-//W3C//DTD SVG 1.1//EN" "http://www.w3.org/Graphics/SVG/1.1/DTD/svg11.dtd"><svg t="1513128053809" class="icon" style="" viewBox="0 0 1024 1024" version="1.1" xmlns="http://www.w3.org/2000/svg" p-id="5787" xmlns:xlink="http://www.w3.org/1999/xlink" width="64" height="64"><defs><style type="text/css"></style></defs><path d="M896 256c0-19.2-12.8-32-32-32h-704c-19.2 0-32 12.8-32 32v512c0 19.2 12.8 32 32 32h704c19.2 0 32-12.8 32-32v-512z m64 0v512c0 54.4-41.6 96-96 96h-704c-54.4 0-96-41.6-96-96v-512c0-54.4 41.6-96 96-96h704c54.4 0 96 41.6 96 96z m-688 352c-9.6 0-16 6.4-16 16v16h224v-16c0-9.6-6.4-16-16-16h-192z m0-64h192c44.8 0 80 35.2 80 80v16c0 35.2-28.8 64-64 64h-224c-35.2 0-64-28.8-64-64v-16c0-44.8 35.2-80 80-80z m368-160h160c19.2 0 32 12.8 32 32s-12.8 32-32 32h-160c-19.2 0-32-12.8-32-32s12.8-32 32-32z m0 160h160c19.2 0 32 12.8 32 32s-12.8 32-32 32h-160c-19.2 0-32-12.8-32-32s12.8-32 32-32z m-320-192v48c0 25.6 22.4 48 48 48s48-22.4 48-48v-48h-96z m0-64h96c35.2 0 64 28.8 64 64v48c0 60.8-51.2 112-112 112s-112-51.2-112-112v-48c0-35.2 28.8-64 64-64z" p-id="5788" fill="#5b9bd1"></path></svg>