<?xml version="1.0" standalone="no"?><!DOCTYPE svg PUBLIC "-//W3C//DTD SVG 1.1//EN" "http://www.w3.org/Graphics/SVG/1.1/DTD/svg11.dtd"><svg t="1513134219199" class="icon" style="" viewBox="0 0 1024 1024" version="1.1" xmlns="http://www.w3.org/2000/svg" p-id="1753" xmlns:xlink="http://www.w3.org/1999/xlink" width="64" height="64"><defs><style type="text/css"></style></defs><path d="M1006.818 873.287c-0.329-0.665-302.377-400.979-302.377-400.979l0-215.467 71.853 0c2.762 0 5.441-0.353 7.996-1.014 62.746-7.93 111.267-61.472 111.267-126.378 0-64.896-48.513-118.488-111.252-126.433-2.56-0.663-5.244-1.016-8.011-1.016l-525.938 0c-2.767 0-5.451 0.354-8.01 1.017-62.743 7.947-111.254 61.538-111.254 126.432 0 64.905 48.519 118.446 111.269 126.378 2.555 0.661 5.234 1.014 7.995 1.014l71.853 0 0 237.013-289.035 362.863c-5.296 5.863-16.111 20.245-16.127 20.273-8.486 14.27-13.365 30.937-13.365 48.752 0 52.786 42.785 95.558 95.558 95.558l828.171 0c2.086 0 4.124-0.207 6.098-0.59 49.716-3.144 89.071-44.447 89.071-94.969C1022.579 906.349 1016.775 888.322 1006.818 873.287zM925.41 957.601l-826.171 0c-17.589 0-28.853-10.27-28.853-27.859 0-14.768 6.022-21.54 16.339-35.859l426.599 0 0-63.667-380.211 0 46.768-63.725 333.443 0 0-63.725-277.279 0 50.857-63.725 226.422 0 0-63.667-175.611 0 50.857-63.725 124.754 0 0-63.693-127.411 0 0-63.699 127.411 0 0-63.725-127.411 0 0-63.693 127.411 0 0-63.725-254.815 0c-35.185 0-63.712-28.521-63.712-63.667 0-35.229 28.527-63.725 63.712-63.725l509.637 0c35.184 0 63.705 28.495 63.705 63.725 0 35.146-28.521 63.667-63.705 63.667l-114.107 0c-8.048 5.789-13.303 15.216-13.303 25.859l0 260.841c0 0.99 0.052 1.968 0.14 2.935-0.008 5.422 1.36 10.918 4.265 15.946l254.132 336.134 34.717 45.919c16.599 21.956 23.273 29.326 23.273 44.992C957.263 943.331 942.999 957.601 925.41 957.601z" p-id="1754" fill="#485a6a"></path></svg>