<?xml version="1.0" standalone="no"?><!DOCTYPE svg PUBLIC "-//W3C//DTD SVG 1.1//EN" "http://www.w3.org/Graphics/SVG/1.1/DTD/svg11.dtd"><svg t="1513127929421" class="icon" style="" viewBox="0 0 1024 1024" version="1.1" xmlns="http://www.w3.org/2000/svg" p-id="2990" xmlns:xlink="http://www.w3.org/1999/xlink" width="64" height="64"><defs><style type="text/css"></style></defs><path d="M512 960c-246.4 0-448-201.6-448-448s201.6-448 448-448 448 201.6 448 448-201.6 448-448 448z m0-64c211.2 0 384-172.8 384-384s-172.8-384-384-384-384 172.8-384 384 172.8 384 384 384z m32-576v211.2l3.2 3.2 156.8 156.8c12.8 12.8 12.8 32 0 44.8s-32 12.8-44.8 0l-156.8-156.8c-3.2-3.2-22.4-22.4-22.4-35.2v-224c0-19.2 12.8-32 32-32s32 12.8 32 32z" p-id="2991" fill="#485a6a"></path></svg>