<?xml version="1.0" standalone="no"?><!DOCTYPE svg PUBLIC "-//W3C//DTD SVG 1.1//EN" "http://www.w3.org/Graphics/SVG/1.1/DTD/svg11.dtd"><svg t="1513127892818" class="icon" style="" viewBox="0 0 1024 1024" version="1.1" xmlns="http://www.w3.org/2000/svg" p-id="2267" xmlns:xlink="http://www.w3.org/1999/xlink" width="64" height="64"><defs><style type="text/css"></style></defs><path d="M512 960C265.6 960 64 758.4 64 512S265.6 64 512 64s448 201.6 448 448-201.6 448-448 448z m0-64c211.2 0 384-172.8 384-384S723.2 128 512 128 128 300.8 128 512s172.8 384 384 384z m0-160c-19.2 0-32-12.8-32-32s12.8-32 32-32 32 12.8 32 32-12.8 32-32 32z m12.8-131.2c-16 6.4-35.2 0-41.6-12.8s0-35.2 12.8-41.6c86.4-44.8 140.8-89.6 140.8-131.2 0-51.2-44.8-96-99.2-96-38.4 0-73.6 22.4-86.4 57.6 0 3.2-3.2 9.6-3.2 16-3.2 16-19.2 28.8-38.4 25.6-16-3.2-28.8-19.2-25.6-38.4 3.2-9.6 6.4-22.4 9.6-32 25.6-57.6 83.2-96 147.2-96 89.6 0 163.2 70.4 163.2 160 0 76.8-67.2 134.4-179.2 188.8z" p-id="2268" fill="#485a6a"></path></svg>