<?xml version="1.0" standalone="no"?><!DOCTYPE svg PUBLIC "-//W3C//DTD SVG 1.1//EN" "http://www.w3.org/Graphics/SVG/1.1/DTD/svg11.dtd"><svg t="1513134251813" class="icon" style="" viewBox="0 0 1026 1024" version="1.1" xmlns="http://www.w3.org/2000/svg" p-id="1978" xmlns:xlink="http://www.w3.org/1999/xlink" width="64.125" height="64"><defs><style type="text/css"></style></defs><path d="M588.697379 682.690884l41.012239-10.389283c-9.479357-50.313509-21.326116-100.623473-35.543822-150.93964l-38.283346 9.30127C568.642678 574.779142 579.580398 625.455026 588.697379 682.690884z" p-id="1979" fill="#5b9bd1"></path><path d="M251.862583 649.061717c26.396717-39.490084 42.947272-68.124847 66.718759-129.223682l0.147963 248.328313 42.593756-0.086828L361.32306 494.457564c17.397574 24.93038 27.93482 42.615906 40.695935 64.123653l38.393211-25.201498-48.736422-77.65825-30.351839 20.643007 0-51.121544 72.333366 0 0-39.653995-72.333366-0.151507 0.162139-127.675833-42.856899 0 0.020378 127.550907-72.728524 0 0 41.168175 72.304128 0.287065c-15.420899 54.631006-52.407136 115.576563-87.040146 170.98548L251.862583 649.061717z" p-id="1980" fill="#5b9bd1"></path><path d="M736.650299 449.176558 509.873147 449.421095 509.878463 491.699434 736.629921 491.967007Z" p-id="1981" fill="#5b9bd1"></path><path d="M457.265774 548.895421c14.580968 45.208354 27.889634 94.973426 39.921568 149.296989l40.467346-12.035478c-14.584512-58.328301-28.80399-107.728339-42.655776-148.200116L457.265774 548.895421z" p-id="1982" fill="#5b9bd1"></path><path d="M446.361723 769.078931l346.987515 0 0-42.507814-99.150049-0.182517c18.594566-50.306421 37.323804-120.552361 61.752706-197.480544l-44.293998-12.578599c-21.150687 82.399257-45.736412 156.833339-65.424307 210.059142L446.361723 726.388601 446.361723 769.078931z" p-id="1983" fill="#5b9bd1"></path><path d="M637.593281 257.894498l-47.685621-0.133787c-41.028187 71.076126-91.873298 131.651333-159.685386 183.057285 12.030162 11.308069 24.659263 23.115844 33.411211 34.772999 62.640482-54.304957 137.881713-142.029984 150.063382-170.382998 17.172529 27.676993 110.823151 124.83619 175.71054 168.061667 10.206766-13.849128 17.053805-28.431868 26.897309-39.366929C744.844064 391.612879 675.407045 318.715128 637.593281 257.894498z" p-id="1984" fill="#5b9bd1"></path><path d="M-0.284407 470.690507l159.87056 0 0 42.552114-159.87056 0 0-42.552114Z" p-id="1985" fill="#5b9bd1"></path><path d="M862.746387 470.690507l158.170319 0 0 42.552114-158.170319 0 0-42.552114Z" p-id="1986" fill="#5b9bd1"></path><path d="M-0.447432 2.583588-0.447432 385.565901 42.104682 385.565901 42.104682 45.135701 978.528503 45.135701 978.528503 384.034886 1021.079731 384.034886 1021.079731 2.583588Z" p-id="1987" fill="#5b9bd1"></path><path d="M978.528503 981.276001 42.104682 981.276001 42.104682 606.001923-0.447432 606.001923-0.447432 1023.827229 1021.079731 1023.827229 1021.079731 606.001923 978.528503 606.001923Z" p-id="1988" fill="#5b9bd1"></path></svg>