<?xml version="1.0" standalone="no"?><!DOCTYPE svg PUBLIC "-//W3C//DTD SVG 1.1//EN" "http://www.w3.org/Graphics/SVG/1.1/DTD/svg11.dtd"><svg t="1513135863399" class="icon" style="" viewBox="0 0 1024 1024" version="1.1" xmlns="http://www.w3.org/2000/svg" p-id="730" xmlns:xlink="http://www.w3.org/1999/xlink" width="64" height="64"><defs><style type="text/css"></style></defs><path d="M192 448H640V512H192zM192 256H640v64H192zM192 640H640v64H192z" p-id="731" fill="#485a6a"></path><path d="M64 64v896H768V64H64zM0 0h832v1024H0V0z" p-id="732" fill="#485a6a"></path><path d="M960 128V64L1024 128h-64z m64 768l-64 64V896h64z m-64-768H768.042667L768 64h256v896H768.6144V896H960V128z m64 768l-64 64V896h64z m-64-832L1024 128h-64V64z m0 832V128H768.042667L768 64h256v896H768.6144V896H960z" p-id="733" fill="#485a6a"></path></svg>