<?xml version="1.0" standalone="no"?><!DOCTYPE svg PUBLIC "-//W3C//DTD SVG 1.1//EN" "http://www.w3.org/Graphics/SVG/1.1/DTD/svg11.dtd"><svg t="1513135815734" class="icon" style="" viewBox="0 0 1024 1024" version="1.1" xmlns="http://www.w3.org/2000/svg" p-id="1319" xmlns:xlink="http://www.w3.org/1999/xlink" width="64" height="64"><defs><style type="text/css"></style></defs><path d="M768 832H192v-192H128v256h704v-256h-64zM889.6 371.2c-6.4-19.2-12.8-32-19.2-51.2-38.4-64-70.4-128-102.4-192H192l-6.4 12.8c-6.4 12.8-12.8 19.2-12.8 32-19.2 38.4-38.4 70.4-57.6 108.8l-19.2 38.4c-12.8 25.6-25.6 51.2-32 76.8-6.4 32 0 64 12.8 89.6 25.6 51.2 76.8 83.2 128 89.6S320 556.8 352 512c32 38.4 76.8 64 128 64s96-25.6 128-64c38.4 51.2 108.8 76.8 166.4 57.6 64-12.8 108.8-70.4 115.2-134.4 6.4-19.2 6.4-44.8 0-64z m-102.4 128c-32 19.2-83.2 12.8-108.8-6.4-32-25.6-44.8-70.4-38.4-108.8H576c12.8 44.8-12.8 96-51.2 115.2-44.8 25.6-102.4 6.4-128-32C384 441.6 384 409.6 384 384H320c0 32 0 57.6-19.2 83.2-19.2 38.4-76.8 57.6-115.2 38.4-38.4-19.2-64-70.4-57.6-115.2 6.4-19.2 12.8-38.4 25.6-57.6 19.2-38.4 38.4-70.4 64-108.8 6.4-6.4 12.8-19.2 12.8-25.6l6.4-6.4h486.4c25.6 51.2 57.6 96 83.2 147.2 12.8 19.2 19.2 38.4 25.6 57.6v19.2c0 32-19.2 64-44.8 83.2z" p-id="1320" fill="#5b9bd1"></path></svg>