<?xml version="1.0" standalone="no"?><!DOCTYPE svg PUBLIC "-//W3C//DTD SVG 1.1//EN" "http://www.w3.org/Graphics/SVG/1.1/DTD/svg11.dtd"><svg t="1513128165314" class="icon" style="" viewBox="0 0 1024 1024" version="1.1" xmlns="http://www.w3.org/2000/svg" p-id="8037" xmlns:xlink="http://www.w3.org/1999/xlink" width="64" height="64"><defs><style type="text/css"></style></defs><path d="M748.8 499.2c12.8-12.8 12.8-32 0-44.8l-272-272c-12.8-12.8-32-12.8-44.8 0L99.2 512l64 252.8 252.8 64 332.8-329.6zM521.6 137.6l272 272c38.4 38.4 38.4 99.2 0 134.4L448 889.6c-6.4 6.4-19.2 9.6-32 9.6l-288-73.6c-12.8-3.2-19.2-12.8-22.4-22.4L32 512c-3.2-9.6 0-22.4 9.6-32L387.2 137.6c35.2-38.4 96-38.4 134.4 0z m121.6 44.8c-12.8-12.8-12.8-32 0-44.8s32-12.8 44.8 0l272 272c38.4 38.4 38.4 99.2 0 134.4L598.4 905.6c-12.8 12.8-32 12.8-44.8 0-12.8-12.8-12.8-32 0-44.8l361.6-361.6c12.8-12.8 12.8-32 0-44.8l-272-272z m-416 518.4c12.8 12.8 32 12.8 44.8 0 12.8-12.8 12.8-32 0-44.8-12.8-12.8-32-12.8-44.8 0-12.8 12.8-12.8 35.2 0 44.8z" p-id="8038" fill="#485a6a"></path></svg>