<?xml version="1.0" standalone="no"?><!DOCTYPE svg PUBLIC "-//W3C//DTD SVG 1.1//EN" "http://www.w3.org/Graphics/SVG/1.1/DTD/svg11.dtd"><svg t="1513128077813" class="icon" style="" viewBox="0 0 1024 1024" version="1.1" xmlns="http://www.w3.org/2000/svg" p-id="6237" xmlns:xlink="http://www.w3.org/1999/xlink" width="64" height="64"><defs><style type="text/css"></style></defs><path d="M224 704c-54.4 0-96 41.6-96 96v64c0 19.2 12.8 32 32 32h704c19.2 0 32-12.8 32-32v-64c0-54.4-41.6-96-96-96h-576z m0-64h576c89.6 0 160 70.4 160 160v64c0 54.4-41.6 96-96 96h-704c-54.4 0-96-41.6-96-96v-64c0-89.6 70.4-160 160-160z m192-512c-35.2 0-64 28.8-64 64v160c0 89.6 70.4 160 160 160s160-70.4 160-160v-160c0-35.2-28.8-64-64-64h-192z m0-64h192c70.4 0 128 57.6 128 128v160c0 124.8-99.2 224-224 224s-224-99.2-224-224v-160c0-70.4 57.6-128 128-128z" p-id="6238" fill="#5b9bd1"></path></svg>