<?xml version="1.0" standalone="no"?><!DOCTYPE svg PUBLIC "-//W3C//DTD SVG 1.1//EN" "http://www.w3.org/Graphics/SVG/1.1/DTD/svg11.dtd"><svg t="1513128024049" class="icon" style="" viewBox="0 0 1024 1024" version="1.1" xmlns="http://www.w3.org/2000/svg" p-id="5112" xmlns:xlink="http://www.w3.org/1999/xlink" width="64" height="64"><defs><style type="text/css"></style></defs><path d="M224 704c-54.4 0-96 41.6-96 96v64c0 19.2 12.8 32 32 32h704c19.2 0 32-12.8 32-32v-64c0-54.4-41.6-96-96-96h-576z m0-64h576c89.6 0 160 70.4 160 160v64c0 54.4-41.6 96-96 96h-704c-54.4 0-96-41.6-96-96v-64c0-89.6 70.4-160 160-160z m384-96c54.4 0 96-41.6 96-96v-128c0-105.6-86.4-192-192-192s-192 86.4-192 192v128c0 54.4 41.6 96 96 96 19.2 0 32 12.8 32 32s-12.8 32-32 32c-89.6 0-160-70.4-160-160v-128c0-140.8 115.2-256 256-256s256 115.2 256 256v128c0 89.6-70.4 160-160 160-19.2 0-32-12.8-32-32s12.8-32 32-32z m-192-224v64c0 54.4 41.6 96 96 96s96-41.6 96-96v-92.8c-54.4 19.2-121.6 28.8-192 28.8z m256-80v144c0 89.6-70.4 160-160 160s-160-70.4-160-160v-96c0-19.2 16-32 32-32h32c83.2 0 160-16 208-44.8 22.4-9.6 48 6.4 48 28.8z" p-id="5113" fill="#5b9bd1"></path></svg>