<?xml version="1.0" standalone="no"?><!DOCTYPE svg PUBLIC "-//W3C//DTD SVG 1.1//EN" "http://www.w3.org/Graphics/SVG/1.1/DTD/svg11.dtd"><svg t="1513128017797" class="icon" style="" viewBox="0 0 1024 1024" version="1.1" xmlns="http://www.w3.org/2000/svg" p-id="4887" xmlns:xlink="http://www.w3.org/1999/xlink" width="64" height="64"><defs><style type="text/css"></style></defs><path d="M800 640h-576c-89.6 0-160 70.4-160 160v64c0 54.4 41.6 96 96 96h704c54.4 0 96-41.6 96-96v-64c0-89.6-70.4-160-160-160z m96 224c0 19.2-12.8 32-32 32h-704c-19.2 0-32-12.8-32-32v-64c0-54.4 41.6-96 96-96h576c54.4 0 96 41.6 96 96v64zM288 352c0 124.8 99.2 224 224 224s224-99.2 224-224c19.2 0 32-12.8 32-32v-64c0-19.2-12.8-32-32-32v-32c0-70.4-57.6-128-128-128h-192c-70.4 0-128 57.6-128 128v32c-19.2 0-32 12.8-32 32v64c0 19.2 12.8 32 32 32z m64-160c0-35.2 28.8-64 64-64h192c35.2 0 64 28.8 64 64v160c0 89.6-70.4 160-160 160s-160-70.4-160-160v-160z" p-id="4888" fill="#485a6a"></path></svg>